<svg
      width="18"
      height="18"
      viewBox="0 0 18 18"
      fill="none"
      xmlns="http://www.w3.org/2000/svg"
    >
      <path
        fillRule="evenodd"
        clipRule="evenodd"
        d="M9 18C13.9706 18 18 13.9706 18 9C18 4.02944 13.9706 0 9 0C4.02944 0 0 4.02944 0 9C0 13.9706 4.02944 18 9 18ZM9 2C9.55229 2 10 2.44772 10 3V6C10 6.55228 9.55229 7 9 7C8.44772 7 8 6.55229 8 6V3C8 2.44772 8.44772 2 9 2ZM12.5355 4.05025C12.9261 3.65973 13.5592 3.65973 13.9497 4.05025C14.9287 5.02922 15.5954 6.2765 15.8655 7.63437C16.1356 8.99223 15.997 10.3997 15.4672 11.6788C14.9373 12.9579 14.0401 14.0511 12.889 14.8203C11.7378 15.5895 10.3845 16 9 16C7.61553 16 6.26215 15.5895 5.11101 14.8203C3.95986 14.0511 3.06265 12.9579 2.53284 11.6788C2.00303 10.3997 1.8644 8.99224 2.1345 7.63437C2.4046 6.2765 3.07128 5.02922 4.05025 4.05025C4.44077 3.65973 5.07394 3.65973 5.46446 4.05025C5.85499 4.44078 5.85499 5.07394 5.46446 5.46447C4.7652 6.16373 4.289 7.05464 4.09607 8.02455C3.90314 8.99445 4.00216 9.99979 4.3806 10.9134C4.75904 11.827 5.3999 12.6079 6.22215 13.1573C7.04439 13.7068 8.01109 14 9 14C9.9889 14 10.9556 13.7068 11.7778 13.1573C12.6001 12.6079 13.241 11.827 13.6194 10.9134C13.9978 9.99979 14.0968 8.99445 13.9039 8.02455C13.711 7.05464 13.2348 6.16373 12.5355 5.46447C12.145 5.07394 12.145 4.44078 12.5355 4.05025Z"
        fill="#898989"
      />
    </svg>