<svg xmlns="http://www.w3.org/2000/svg" width="187" height="32" viewBox="0 0 187 32" fill="none">
<g id="Logo">
<path id="Fill 1" fill-rule="evenodd" clip-rule="evenodd" d="M36.9023 8.2668H40.256V10.2145C40.7616 9.50122 41.4106 8.94441 42.2019 8.54291C42.9921 8.14371 43.8933 7.94238 44.9066 7.94238C46.171 7.94238 47.2414 8.20123 48.1157 8.72237C48.9911 9.24122 49.6603 9.95563 50.1243 10.8645C50.6725 9.95563 51.4055 9.24122 52.3235 8.72237C53.2404 8.20123 54.2896 7.94238 55.4699 7.94238C57.641 7.94238 59.2764 8.55441 60.3726 9.77617C61.4688 11.0002 62.017 12.6603 62.017 14.7598V24.4994H58.5702V14.9876C58.5702 13.7544 58.2597 12.7742 57.6365 12.0494C57.0144 11.3235 56.102 10.9623 54.9004 10.9623C53.8266 10.9623 52.9288 11.3292 52.2114 12.0667C51.4952 12.8006 51.1365 13.8947 51.1365 15.3442V24.4994H47.72V14.8254C47.72 13.6347 47.4095 12.6937 46.7875 11.9999C46.1654 11.3085 45.2855 10.9623 44.1466 10.9623C43.028 10.9623 42.1066 11.3408 41.3781 12.0977C40.6517 12.8559 40.2874 13.981 40.2874 15.4742V24.4994H36.9023V8.2668Z" fill="#353E54"/>
<path id="Fill 3" fill-rule="evenodd" clip-rule="evenodd" d="M72.1357 21.5784C72.8105 21.5784 73.4427 21.4438 74.0334 21.1723C74.6241 20.902 75.1409 20.5292 75.5836 20.053C76.0264 19.5767 76.3738 19.0245 76.6271 18.3963C76.8793 17.7694 77.006 17.0975 77.006 16.3831C77.006 15.6698 76.8793 14.9991 76.6271 14.371C76.3738 13.7429 76.0264 13.193 75.5836 12.7155C75.1409 12.2404 74.6241 11.8677 74.0334 11.595C73.4427 11.3247 72.8105 11.1901 72.1357 11.1901C71.4397 11.1901 70.7963 11.3247 70.2056 11.595C69.6149 11.8677 69.1037 12.2404 68.6711 12.7155C68.2395 13.193 67.9022 13.7429 67.66 14.371C67.4168 14.9991 67.2969 15.6698 67.2969 16.3831C67.2969 17.0975 67.4168 17.7694 67.66 18.3963C67.9022 19.0245 68.2395 19.5767 68.6711 20.053C69.1037 20.5292 69.6149 20.902 70.2056 21.1723C70.7963 21.4438 71.4397 21.5784 72.1357 21.5784ZM72.1371 24.8249C70.9982 24.8249 69.9323 24.6087 68.9414 24.1749C67.9517 23.7435 67.0796 23.1419 66.332 22.3734C65.5832 21.6049 64.9992 20.7064 64.5767 19.6791C64.1552 18.6506 63.9434 17.5531 63.9434 16.3831C63.9434 15.1947 64.1552 14.0845 64.5767 13.0572C64.9992 12.0287 65.5832 11.136 66.332 10.379C67.0796 9.62086 67.9517 9.02609 68.9414 8.59353C69.9323 8.15981 70.9982 7.94238 72.1371 7.94238C73.2759 7.94238 74.3407 8.15981 75.3327 8.59353C76.3224 9.02609 77.1923 9.62086 77.941 10.379C78.6898 11.136 79.2737 12.0287 79.6963 13.0572C80.1178 14.0845 80.3296 15.1947 80.3296 16.3831C80.3296 17.5531 80.1178 18.6506 79.6963 19.6791C79.2737 20.7064 78.6898 21.6049 77.941 22.3734C77.1923 23.1419 76.3224 23.7435 75.3327 24.1749C74.3407 24.6087 73.2759 24.8249 72.1371 24.8249Z" fill="#353E54"/>
<path id="Fill 5" fill-rule="evenodd" clip-rule="evenodd" d="M82.3438 8.2668H85.6963V10.3778C86.2444 9.62086 86.9304 9.02494 87.7532 8.59238C88.5759 8.15866 89.513 7.94238 90.5677 7.94238C92.5707 7.94238 94.1422 8.56477 95.281 9.80953C96.4199 11.0543 96.9893 12.7914 96.9893 15.0187V24.4994H93.5728V15.312C93.5728 13.9706 93.2511 12.9088 92.6077 12.1299C91.9643 11.3523 91.0105 10.9623 89.7461 10.9623C88.6073 10.9623 87.6534 11.373 86.8833 12.1955C86.1133 13.0181 85.7288 14.142 85.7288 15.572V24.4994H82.3438V8.2668Z" fill="#353E54"/>
<path id="Fill 7" fill-rule="evenodd" clip-rule="evenodd" d="M107.127 11.0264C105.968 11.0264 104.965 11.3577 104.122 12.0169C103.278 12.6784 102.688 13.5263 102.35 14.5651H111.809C111.513 13.4181 110.959 12.5415 110.148 11.9364C109.335 11.3301 108.328 11.0264 107.127 11.0264ZM107.064 24.8249C105.819 24.8249 104.691 24.6029 103.678 24.1588C102.666 23.7148 101.807 23.1154 101.1 22.3584C100.394 21.5991 99.8517 20.7133 99.4718 19.6952C99.0918 18.6782 98.9023 17.5968 98.9023 16.4487C98.9023 15.2591 99.1131 14.1432 99.5356 13.1055C99.9571 12.0667 100.531 11.1682 101.258 10.4101C101.986 9.65307 102.851 9.05255 103.852 8.60848C104.854 8.16557 105.935 7.94238 107.095 7.94238C108.255 7.94238 109.334 8.14946 110.337 8.55901C111.339 8.97087 112.203 9.55068 112.93 10.2962C113.658 11.0439 114.227 11.9252 114.638 12.9433C115.05 13.9614 115.255 15.075 115.255 16.2865V17.4875H102.129C102.319 18.7426 102.846 19.7757 103.71 20.5879C104.575 21.4001 105.703 21.8051 107.095 21.8051C108.19 21.8051 109.104 21.5566 109.83 21.0584C110.558 20.5614 111.07 19.8896 111.364 19.0463H115.002C114.391 20.8422 113.426 22.256 112.108 23.2822C110.79 24.3107 109.109 24.8249 107.064 24.8249Z" fill="#353E54"/>
<path id="Fill 9" fill-rule="evenodd" clip-rule="evenodd" d="M121.601 23.656L115.053 8.26782H118.69L123.308 19.534L127.674 8.26782H131.247L121.696 32H118.216L121.601 23.656Z" fill="#353E54"/>
<path id="Fill 11" fill-rule="evenodd" clip-rule="evenodd" d="M133.008 11.383V0.801392H136.423V8.26653H139.776V11.383H136.423V17.8439C136.423 18.5801 136.46 19.1703 136.534 19.6132C136.608 20.0573 136.766 20.3978 137.008 20.636C137.251 20.8741 137.594 21.0317 138.036 21.1065C138.479 21.1836 139.058 21.2204 139.776 21.2204V24.4991H139.27C138.069 24.4991 137.067 24.391 136.265 24.1735C135.464 23.9584 134.82 23.596 134.336 23.0875C133.851 22.5779 133.508 21.898 133.309 21.0421C133.108 20.1861 133.008 19.1323 133.008 17.8772V11.383Z" fill="#353E54"/>
<path id="Fill 13" fill-rule="evenodd" clip-rule="evenodd" d="M148.739 21.5784C149.414 21.5784 150.046 21.4438 150.637 21.1723C151.228 20.902 151.744 20.5292 152.187 20.053C152.63 19.5767 152.977 19.0245 153.231 18.3963C153.483 17.7694 153.61 17.0975 153.61 16.3831C153.61 15.6698 153.483 14.9991 153.231 14.371C152.977 13.7429 152.63 13.193 152.187 12.7155C151.744 12.2404 151.228 11.8677 150.637 11.595C150.046 11.3247 149.414 11.1901 148.739 11.1901C148.043 11.1901 147.4 11.3247 146.809 11.595C146.218 11.8677 145.707 12.2404 145.275 12.7155C144.843 13.193 144.506 13.7429 144.264 14.371C144.02 14.9991 143.9 15.6698 143.9 16.3831C143.9 17.0975 144.02 17.7694 144.264 18.3963C144.506 19.0245 144.843 19.5767 145.275 20.053C145.707 20.5292 146.218 20.902 146.809 21.1723C147.4 21.4438 148.043 21.5784 148.739 21.5784ZM148.739 24.8249C147.6 24.8249 146.535 24.6087 145.544 24.1749C144.553 23.7435 143.681 23.1419 142.934 22.3734C142.185 21.6049 141.601 20.7064 141.178 19.6791C140.757 18.6506 140.545 17.5531 140.545 16.3831C140.545 15.1947 140.757 14.0845 141.178 13.0572C141.601 12.0287 142.185 11.136 142.934 10.379C143.681 9.62086 144.553 9.02609 145.544 8.59353C146.535 8.15981 147.6 7.94238 148.739 7.94238C149.877 7.94238 150.942 8.15981 151.934 8.59353C152.924 9.02609 153.794 9.62086 154.543 10.379C155.291 11.136 155.875 12.0287 156.298 13.0572C156.719 14.0845 156.931 15.1947 156.931 16.3831C156.931 17.5531 156.719 18.6506 156.298 19.6791C155.875 20.7064 155.291 21.6049 154.543 22.3734C153.794 23.1419 152.924 23.7435 151.934 24.1749C150.942 24.6087 149.877 24.8249 148.739 24.8249Z" fill="#353E54"/>
<mask id="mask0_4387_1005" style="mask-type:luminance" maskUnits="userSpaceOnUse" x="0" y="0" width="187" height="32">
<path id="Clip 16" fill-rule="evenodd" clip-rule="evenodd" d="M0 31.9992H187V0H0V31.9992Z" fill="white"/>
</mask>
<g mask="url(#mask0_4387_1005)">
<path id="Fill 15" fill-rule="evenodd" clip-rule="evenodd" d="M158.945 24.5002H162.33V0.801392H158.945V24.5002Z" fill="#353E54"/>
<path id="Fill 17" fill-rule="evenodd" clip-rule="evenodd" d="M165.082 24.5H168.498V8.26748H165.082V24.5ZM164.512 3.13865C164.512 2.44609 164.724 1.88353 165.145 1.44982C165.566 1.0184 166.115 0.802124 166.789 0.802124C167.464 0.802124 168.012 1.0184 168.434 1.44982C168.856 1.88353 169.067 2.44609 169.067 3.13865C169.067 3.83236 168.856 4.39492 168.434 4.82748C168.012 5.26119 167.464 5.47632 166.789 5.47632C166.115 5.47632 165.566 5.26119 165.145 4.82748C164.724 4.39492 164.512 3.83236 164.512 3.13865Z" fill="#353E54"/>
<path id="Fill 18" fill-rule="evenodd" clip-rule="evenodd" d="M178.806 21.6428C179.523 21.6428 180.186 21.5025 180.798 21.2206C181.409 20.9399 181.937 20.5614 182.38 20.084C182.823 19.6077 183.171 19.0509 183.424 18.4124C183.677 17.7739 183.802 17.0871 183.802 16.3497C183.802 15.6364 183.677 14.96 183.424 14.3227C183.171 13.683 182.823 13.1262 182.38 12.6499C181.937 12.1748 181.409 11.794 180.798 11.5133C180.186 11.2326 179.523 11.0922 178.806 11.0922C178.109 11.0922 177.456 11.2268 176.845 11.4983C176.233 11.7687 175.701 12.1414 175.248 12.6166C174.794 13.094 174.441 13.652 174.189 14.2893C173.934 14.9278 173.809 15.6157 173.809 16.3497C173.809 17.0871 173.934 17.7797 174.189 18.4285C174.441 19.0785 174.794 19.6411 175.248 20.1174C175.701 20.5925 176.233 20.9664 176.845 21.2367C177.456 21.5082 178.109 21.6428 178.806 21.6428ZM178.332 24.8249C177.32 24.8249 176.345 24.6236 175.407 24.2233C174.468 23.8229 173.629 23.2604 172.893 22.5344C172.153 21.8108 171.563 20.9284 171.121 19.8896C170.678 18.8496 170.457 17.6819 170.457 16.3831C170.457 15.0854 170.672 13.9166 171.105 12.8777C171.536 11.8389 172.117 10.9508 172.846 10.2145C173.572 9.47936 174.415 8.91565 175.374 8.52795C176.335 8.13796 177.331 7.94238 178.363 7.94238C179.419 7.94238 180.409 8.15866 181.337 8.59238C182.266 9.02494 183.024 9.62086 183.615 10.3778V8.2668H186.999V24.4994H183.615V22.2595C183.002 23.059 182.234 23.6872 181.305 24.1427C180.377 24.596 179.387 24.8249 178.332 24.8249Z" fill="#353E54"/>
<g id="Group 172">
<rect id="Rectangle" x="5.41016" y="3.33252" width="20.5583" height="18.885" fill="white"/>
<path id="Fill 19" fill-rule="evenodd" clip-rule="evenodd" d="M23.7 18.2944C23.7 19.6048 22.6665 20.6655 21.3898 20.6655H18.6829H10.2964H7.58833C6.31276 20.6655 5.2793 19.6048 5.2793 18.2944V7.77145C5.2793 5.60059 7.88424 4.57096 9.30104 6.18156L12.8296 10.1874C13.7185 11.1963 15.2619 11.1963 16.1508 10.1874L19.6771 6.18156C21.095 4.57096 23.7 5.60059 23.7 7.77145V18.2944ZM22.8269 0H6.15031C2.7529 0 0 2.82661 0 6.31241V19.7483C0 23.2341 2.7529 26.0607 6.15031 26.0607H22.8269C26.2232 26.0607 28.9772 23.2341 28.9772 19.7483V6.31241C28.9772 2.82661 26.2232 0 22.8269 0Z" fill="#FF4307"/>
<path id="Fill 20" fill-rule="evenodd" clip-rule="evenodd" d="M14.4899 18.0407C11.6731 18.0407 9.38086 15.6881 9.38086 12.7959H11.6226C11.6226 14.4203 12.9094 15.7398 14.4899 15.7398C16.0703 15.7398 17.3571 14.4203 17.3571 12.7959H19.5989C19.5989 15.6881 17.3067 18.0407 14.4899 18.0407Z" fill="#FF4307"/>
</g>
</g>
</g>
</svg>
